. 
  
http://www.torrenting.com/        :     Greatest Movie Tracker on The Net!!!
 
http://www.Torrenting.com          :     Once & For all ;)


               www . Torrenting . Com 

(((((((((((((= Enjoy No RAR releases =))))))))))))))))))))


...................................NFO:....................................

.
                                                     
                                                   
                                                         
                                                          
                                                           
                                                          
                                                          
                                                          
                                                           
                                                         
                                                          
                                                        
                                                      
                                     
                                                 
                                                   
                                             
                                              
                                                     
                                                      
                                                      
                                                      
                                                    
                                                     
                                                   
                                                     
                                                     
                                                      
                                                     
                                                      
                                                    
                 ARTiCHOKE                        
                                                
                      
                                                        
                                                      
                                                      
                                               
                                          
                                                   
                                            
                                                    
                                                       
                                                        
                                                      
                                                
                                                        
                                                 
                                              
                                                  
                                                
                                                  
                                        

      
                                
      SPRiNTER proudly presents...     
                                
      
 
 UFC.126.Silva.vs.Belfort.2011.DVDRip.XviD-SPRiNTER  http://www.amazon.com/UFC-126-Anderson-Silva/dp/B004LWL0OS/ref=sr_1_1?ie=UTF8&qid=1303323366&sr=8-1
 Subtitles: N/A

 Date: 2011.04
 Genre: Sport


      
                 
      Release notes     
                 
      

 Enjoy!


      
          
       News      
          
      

 We are currently looking for:

 - Suppliers who can provide pre-retail or retail dvds with decent upload!
 - 50Mbit+ dump providers with 1TB+ free space.
 - Talented and dedicated xvid encoders.
 sprinter@hush.com


      
           
     Greetings    
           
      


NTX aAF FiCO HNR CiNEFiLE AEN HUMANiSM 0MNiDVD TASTE


      
           
      Details     
           
      

Format                           : AVI
Format/Info                      : Audio Video Interleave
File size                        : 1.37 GiB
Duration                         : 1h 59mn
Overall bit rate                 : 1 635 Kbps
Writing application              : VirtualDubMod 1.5.10.2 (build 2540/release)
Writing library                  : VirtualDubMod build 2540/release

Video
ID                               : 0
Format                           : MPEG-4 Visual
Format profile                   : Advanced Simple@L5
Format settings, BVOP            : Yes
Format settings, QPel            : No
Format settings, GMC             : No warppoints
Format settings, Matrix          : Default (H.263)
Codec ID                         : XVID
Codec ID/Hint                    : XviD
Duration                         : 1h 59mn
Bit rate                         : 1 431 Kbps
Width                            : 608 pixels
Height                           : 336 pixels
Display aspect ratio             : 16:9
Frame rate                       : 29.970 fps
Color space                      : YUV
Chroma subsampling               : 4:2:0
Bit depth                        : 8 bits
Scan type                        : Progressive
Bits/(Pixel*Frame)               : 0.234
Stream size                      : 1.20 GiB (88%)
Writing library                  : XviD 1.1.2 (UTC 2006-11-01)

Audio
ID                               : 1
Format                           : AC-3
Format/Info                      : Audio Coding 3
Mode extension                   : CM (complete main)
Codec ID                         : 2000
Duration                         : 1h 59mn
Bit rate mode                    : Constant
Bit rate                         : 192 Kbps
Channel(s)                       : 2 channels
Channel positions                : Front: L R
Sampling rate                    : 48.0 KHz
Stream size                      : 164 MiB (12%)
Alignment                        : Split accross interleaves
Interleave, duration             : 33 ms (1.00 video frame)
Interleave, preload duration     : 500 ms